<svg width="72" height="72" viewBox="0 0 72 72" fill="none" xmlns="http://www.w3.org/2000/svg">
<path d="M-3.14722e-06 36C-2.73392e-06 40.7276 0.931165 45.4089 2.74033 49.7766C4.54951 54.1443 7.20125 58.1129 10.5442 61.4559C13.8871 64.7988 17.8557 67.4505 22.2234 69.2597C26.5911 71.0688 31.2724 72 36 72C40.7276 72 45.4089 71.0688 49.7766 69.2597C54.1443 67.4505 58.1129 64.7988 61.4558 61.4558C64.7988 58.1129 67.4505 54.1443 69.2597 49.7766C71.0688 45.4089 72 40.7276 72 36L36 36L-3.14722e-06 36Z" fill="white"/>
<path d="M72 36C72 31.2724 71.0688 26.5911 69.2597 22.2234C67.4505 17.8557 64.7988 13.8871 61.4558 10.5442C58.1129 7.20125 54.1443 4.54951 49.7766 2.74034C45.4089 0.931167 40.7276 -2.06649e-07 36 0C31.2724 2.06649e-07 26.5911 0.931168 22.2234 2.74034C17.8557 4.54951 13.8871 7.20125 10.5442 10.5442C7.20125 13.8871 4.5495 17.8557 2.74034 22.2234C0.931167 26.5911 -4.13299e-07 31.2724 0 36L36 36H72Z" fill="#FF0000"/>
<circle cx="36" cy="36" r="34" stroke="black" stroke-width="4"/>
<line x1="1" y1="36" x2="71" y2="36" stroke="black" stroke-width="4"/>
<path d="M49 36C49 43.1797 43.1797 49 36 49C28.8203 49 23 43.1797 23 36C23 28.8203 28.8203 23 36 23C43.1797 23 49 28.8203 49 36Z" fill="white" stroke="black" stroke-width="4"/>
</svg>
